<svg width="186" height="116" viewBox="0 0 186 116" fill="none" xmlns="http://www.w3.org/2000/svg">
<g filter="url(#filter0_d_2012_1585)">
<rect x="16" y="13" width="154.541" height="66.5408" rx="33.2704" fill="white" shape-rendering="crispEdges"/>
<circle cx="49.2704" cy="46.2704" r="21.2704" fill="#FFCC6A"/>
<path d="M49.3955 41.5203C48.4313 41.5203 47.4888 41.8062 46.6871 42.3419C45.8854 42.8776 45.2606 43.639 44.8916 44.5297C44.5226 45.4205 44.4261 46.4007 44.6142 47.3464C44.8023 48.292 45.2666 49.1607 45.9484 49.8425C46.6301 50.5243 47.4988 50.9886 48.4444 51.1767C49.3901 51.3648 50.3703 51.2682 51.2611 50.8992C52.1519 50.5303 52.9132 49.9054 53.4489 49.1037C53.9846 48.302 54.2705 47.3595 54.2705 46.3953C54.2692 45.1028 53.7551 43.8636 52.8412 42.9497C51.9272 42.0357 50.688 41.5217 49.3955 41.5203ZM49.3955 48.8328C48.9134 48.8328 48.4422 48.6899 48.0413 48.422C47.6405 48.1542 47.328 47.7735 47.1436 47.3281C46.9591 46.8827 46.9108 46.3926 47.0048 45.9198C47.0989 45.447 47.331 45.0126 47.6719 44.6718C48.0128 44.3309 48.4471 44.0987 48.92 44.0047C49.3928 43.9106 49.8829 43.9589 50.3283 44.1434C50.7737 44.3279 51.1544 44.6403 51.4222 45.0411C51.6901 45.442 51.833 45.9132 51.833 46.3953C51.833 47.0418 51.5762 47.6618 51.1191 48.1189C50.662 48.576 50.042 48.8328 49.3955 48.8328ZM54.2705 35.4266H44.5205C42.9049 35.4285 41.356 36.0711 40.2137 37.2135C39.0713 38.3559 38.4286 39.9047 38.4268 41.5203V51.2703C38.4286 52.8859 39.0713 54.4348 40.2137 55.5772C41.356 56.7196 42.9049 57.3622 44.5205 57.3641H54.2705C55.8861 57.3622 57.435 56.7196 58.5774 55.5772C59.7198 54.4348 60.3624 52.8859 60.3643 51.2703V41.5203C60.3624 39.9047 59.7198 38.3559 58.5774 37.2135C57.435 36.0711 55.8861 35.4285 54.2705 35.4266ZM57.9268 51.2703C57.9268 52.24 57.5415 53.17 56.8559 53.8557C56.1702 54.5414 55.2402 54.9266 54.2705 54.9266H44.5205C43.5508 54.9266 42.6208 54.5414 41.9351 53.8557C41.2495 53.17 40.8643 52.24 40.8643 51.2703V41.5203C40.8643 40.5506 41.2495 39.6206 41.9351 38.935C42.6208 38.2493 43.5508 37.8641 44.5205 37.8641H54.2705C55.2402 37.8641 56.1702 38.2493 56.8559 38.935C57.5415 39.6206 57.9268 40.5506 57.9268 41.5203V51.2703ZM56.3018 41.1141C56.3018 41.4355 56.2065 41.7496 56.0279 42.0169C55.8493 42.2841 55.5955 42.4924 55.2986 42.6154C55.0017 42.7384 54.675 42.7706 54.3597 42.7079C54.0445 42.6452 53.755 42.4904 53.5277 42.2631C53.3004 42.0359 53.1457 41.7463 53.083 41.4311C53.0203 41.1159 53.0525 40.7891 53.1755 40.4922C53.2984 40.1953 53.5067 39.9415 53.774 39.7629C54.0412 39.5844 54.3554 39.4891 54.6768 39.4891C55.1077 39.4891 55.5211 39.6603 55.8258 39.965C56.1306 40.2698 56.3018 40.6831 56.3018 41.1141Z" fill="#7551DC"/>
<path d="M85.501 44.5344C84.3597 44.5344 83.357 44.3104 82.493 43.8624C81.629 43.4144 80.957 42.7744 80.477 41.9424C79.997 41.1211 79.757 40.1504 79.757 39.0304C79.757 37.8891 79.949 36.8277 80.333 35.8464C80.7277 34.8651 81.277 34.0117 81.981 33.2864C82.6957 32.5504 83.5383 31.9797 84.509 31.5744C85.4903 31.1584 86.573 30.9504 87.757 30.9504C88.9517 30.9504 89.9863 31.1797 90.861 31.6384C91.7463 32.0971 92.429 32.7371 92.909 33.5584C93.3997 34.3691 93.645 35.3131 93.645 36.3904C93.645 37.0197 93.5704 37.6277 93.421 38.2144C93.2717 38.8011 93.0423 39.3344 92.733 39.8144C92.4343 40.2837 92.0717 40.6624 91.645 40.9504C91.2183 41.2277 90.7223 41.3664 90.157 41.3664C89.485 41.3664 88.9943 41.1637 88.685 40.7584C88.3863 40.3531 88.2797 39.8251 88.365 39.1744L88.413 38.6464L88.701 39.2384C88.4343 39.8997 88.013 40.4224 87.437 40.8064C86.8717 41.1797 86.2477 41.3664 85.565 41.3664C84.7757 41.3664 84.1517 41.1264 83.693 40.6464C83.245 40.1557 83.021 39.4891 83.021 38.6464C83.021 38.0597 83.1117 37.4997 83.293 36.9664C83.485 36.4331 83.7463 35.9584 84.077 35.5424C84.4077 35.1157 84.8023 34.7797 85.261 34.5344C85.7303 34.2891 86.2477 34.1664 86.813 34.1664C87.453 34.1664 87.9597 34.3371 88.333 34.6784C88.7063 35.0091 88.9303 35.4944 89.005 36.1344L88.669 36.3424L89.037 34.3264H90.365L89.581 38.8064C89.5063 39.2437 89.5277 39.6011 89.645 39.8784C89.7623 40.1451 90.0077 40.2784 90.381 40.2784C90.7117 40.2784 90.9997 40.1611 91.245 39.9264C91.4903 39.6917 91.6983 39.3877 91.869 39.0144C92.0397 38.6304 92.1677 38.2144 92.253 37.7664C92.3383 37.3184 92.381 36.8811 92.381 36.4544C92.381 35.5371 92.1837 34.7531 91.789 34.1024C91.405 33.4517 90.8557 32.9504 90.141 32.5984C89.4263 32.2357 88.573 32.0544 87.581 32.0544C86.621 32.0544 85.741 32.2304 84.941 32.5824C84.141 32.9344 83.4477 33.4251 82.861 34.0544C82.2743 34.6731 81.821 35.3984 81.501 36.2304C81.181 37.0624 81.021 37.9531 81.021 38.9024C81.021 39.8624 81.2077 40.6784 81.581 41.3504C81.965 42.0224 82.509 42.5291 83.213 42.8704C83.9277 43.2224 84.7703 43.3984 85.741 43.3984C86.2103 43.3984 86.6743 43.3504 87.133 43.2544C87.6023 43.1691 88.0343 43.0357 88.429 42.8544L88.701 43.9264C88.2103 44.1291 87.693 44.2784 87.149 44.3744C86.6157 44.4811 86.0663 44.5344 85.501 44.5344ZM86.061 40.1664C86.477 40.1664 86.861 40.0544 87.213 39.8304C87.565 39.5957 87.8583 39.2757 88.093 38.8704C88.3277 38.4544 88.4663 37.9797 88.509 37.4464C88.5517 37.0624 88.5143 36.7157 88.397 36.4064C88.2903 36.0864 88.109 35.8357 87.853 35.6544C87.6077 35.4624 87.2877 35.3664 86.893 35.3664C86.5197 35.3664 86.1783 35.4517 85.869 35.6224C85.5703 35.7931 85.3143 36.0224 85.101 36.3104C84.8983 36.5984 84.7383 36.9237 84.621 37.2864C84.5143 37.6491 84.461 38.0171 84.461 38.3904C84.461 38.9237 84.5943 39.3557 84.861 39.6864C85.1277 40.0064 85.5277 40.1664 86.061 40.1664ZM96.4869 41.2704V37.1104L92.7909 30.0704H94.5989L97.5109 35.9904H97.0789L99.9589 30.0704H101.751L98.0869 37.1104V41.2704H96.4869ZM104.452 41.4624C103.694 41.4624 103.012 41.2917 102.404 40.9504C101.806 40.5984 101.332 40.1077 100.98 39.4784C100.638 38.8384 100.468 38.0971 100.468 37.2544C100.468 36.4117 100.644 35.6757 100.996 35.0464C101.348 34.4064 101.828 33.9157 102.436 33.5744C103.044 33.2224 103.721 33.0464 104.468 33.0464C105.236 33.0464 105.918 33.2224 106.516 33.5744C107.124 33.9157 107.598 34.4011 107.94 35.0304C108.292 35.6597 108.468 36.4011 108.468 37.2544C108.468 38.0971 108.292 38.8384 107.94 39.4784C107.588 40.1077 107.108 40.5984 106.5 40.9504C105.902 41.2917 105.22 41.4624 104.452 41.4624ZM104.452 40.0864C104.889 40.0864 105.284 39.9851 105.636 39.7824C105.998 39.5691 106.286 39.2491 106.5 38.8224C106.724 38.3957 106.836 37.8731 106.836 37.2544C106.836 36.6251 106.729 36.1024 106.516 35.6864C106.302 35.2597 106.014 34.9451 105.652 34.7424C105.3 34.5291 104.91 34.4224 104.484 34.4224C104.068 34.4224 103.673 34.5291 103.3 34.7424C102.937 34.9451 102.644 35.2597 102.42 35.6864C102.206 36.1024 102.1 36.6251 102.1 37.2544C102.1 37.8731 102.206 38.3957 102.42 38.8224C102.644 39.2491 102.932 39.5691 103.284 39.7824C103.646 39.9851 104.036 40.0864 104.452 40.0864ZM112.318 41.4624C111.689 41.4624 111.145 41.3344 110.686 41.0784C110.227 40.8224 109.87 40.4384 109.614 39.9264C109.369 39.4037 109.246 38.7531 109.246 37.9744V33.2384H110.846V37.8144C110.846 38.5717 111.006 39.1424 111.326 39.5264C111.657 39.9104 112.131 40.1024 112.75 40.1024C113.177 40.1024 113.555 40.0011 113.886 39.7984C114.227 39.5957 114.494 39.3024 114.686 38.9184C114.878 38.5344 114.974 38.0651 114.974 37.5104V33.2384H116.574V41.2704H115.15L115.038 39.8944C114.793 40.3744 114.43 40.7584 113.95 41.0464C113.481 41.3237 112.937 41.4624 112.318 41.4624ZM117.789 41.2704V33.2384H119.229L119.373 34.7584C119.554 34.3957 119.784 34.0917 120.061 33.8464C120.349 33.5904 120.685 33.3931 121.069 33.2544C121.464 33.1157 121.906 33.0464 122.397 33.0464V34.7264H121.869C121.528 34.7264 121.208 34.7691 120.909 34.8544C120.61 34.9397 120.344 35.0784 120.109 35.2704C119.885 35.4624 119.709 35.7237 119.581 36.0544C119.453 36.3851 119.389 36.7957 119.389 37.2864V41.2704H117.789ZM127.931 41.4624C126.832 41.4624 125.883 41.2224 125.083 40.7424C124.283 40.2517 123.664 39.5744 123.227 38.7104C122.8 37.8357 122.587 36.8224 122.587 35.6704C122.587 34.5291 122.8 33.5211 123.227 32.6464C123.664 31.7717 124.283 31.0944 125.083 30.6144C125.883 30.1237 126.832 29.8784 127.931 29.8784C129.232 29.8784 130.293 30.1931 131.115 30.8224C131.936 31.4517 132.453 32.3371 132.667 33.4784H130.923C130.752 32.8171 130.416 32.2891 129.915 31.8944C129.424 31.4997 128.757 31.3024 127.915 31.3024C127.168 31.3024 126.512 31.4784 125.947 31.8304C125.392 32.1824 124.965 32.6837 124.667 33.3344C124.368 33.9851 124.219 34.7637 124.219 35.6704C124.219 36.5771 124.368 37.3611 124.667 38.0224C124.965 38.6731 125.392 39.1744 125.947 39.5264C126.512 39.8677 127.168 40.0384 127.915 40.0384C128.757 40.0384 129.424 39.8517 129.915 39.4784C130.416 39.0944 130.747 38.5771 130.907 37.9264H132.667C132.453 39.0357 131.936 39.9051 131.115 40.5344C130.293 41.1531 129.232 41.4624 127.931 41.4624ZM137.221 41.4624C136.464 41.4624 135.781 41.2917 135.173 40.9504C134.576 40.5984 134.101 40.1077 133.749 39.4784C133.408 38.8384 133.237 38.0971 133.237 37.2544C133.237 36.4117 133.413 35.6757 133.765 35.0464C134.117 34.4064 134.597 33.9157 135.205 33.5744C135.813 33.2224 136.49 33.0464 137.237 33.0464C138.005 33.0464 138.688 33.2224 139.285 33.5744C139.893 33.9157 140.368 34.4011 140.709 35.0304C141.061 35.6597 141.237 36.4011 141.237 37.2544C141.237 38.0971 141.061 38.8384 140.709 39.4784C140.357 40.1077 139.877 40.5984 139.269 40.9504C138.672 41.2917 137.989 41.4624 137.221 41.4624ZM137.221 40.0864C137.658 40.0864 138.053 39.9851 138.405 39.7824C138.768 39.5691 139.056 39.2491 139.269 38.8224C139.493 38.3957 139.605 37.8731 139.605 37.2544C139.605 36.6251 139.498 36.1024 139.285 35.6864C139.072 35.2597 138.784 34.9451 138.421 34.7424C138.069 34.5291 137.68 34.4224 137.253 34.4224C136.837 34.4224 136.442 34.5291 136.069 34.7424C135.706 34.9451 135.413 35.2597 135.189 35.6864C134.976 36.1024 134.869 36.6251 134.869 37.2544C134.869 37.8731 134.976 38.3957 135.189 38.8224C135.413 39.2491 135.701 39.5691 136.053 39.7824C136.416 39.9851 136.805 40.0864 137.221 40.0864Z" fill="#121212"/>
<path d="M80.257 59.2704V51.9984L78.901 52.2984V51.6024L80.593 50.8704H81.277V59.2704H80.257ZM82.5581 59.2704V58.5624C83.1261 58.1144 83.6621 57.6624 84.1661 57.2064C84.6781 56.7424 85.1301 56.2864 85.5221 55.8384C85.9221 55.3904 86.2341 54.9504 86.4581 54.5184C86.6901 54.0864 86.8061 53.6704 86.8061 53.2704C86.8061 52.9744 86.7541 52.6984 86.6501 52.4424C86.5541 52.1864 86.3941 51.9824 86.1701 51.8304C85.9461 51.6704 85.6421 51.5904 85.2581 51.5904C84.8901 51.5904 84.5821 51.6744 84.3341 51.8424C84.0861 52.0024 83.8981 52.2184 83.7701 52.4904C83.6501 52.7624 83.5901 53.0544 83.5901 53.3664H82.6181C82.6181 52.8144 82.7341 52.3424 82.9661 51.9504C83.1981 51.5504 83.5141 51.2464 83.9141 51.0384C84.3141 50.8304 84.7661 50.7264 85.2701 50.7264C86.0141 50.7264 86.6221 50.9384 87.0941 51.3624C87.5741 51.7784 87.8141 52.4024 87.8141 53.2344C87.8141 53.7304 87.6901 54.2224 87.4421 54.7104C87.1941 55.1904 86.8781 55.6584 86.4941 56.1144C86.1101 56.5624 85.6981 56.9824 85.2581 57.3744C84.8261 57.7664 84.4221 58.1184 84.0461 58.4304H88.1021V59.2704H82.5581ZM89.1973 59.2704V50.8704H90.2053V54.6744L93.7093 50.8704H94.9813L91.8613 54.2184L95.0293 59.2704H93.8053L91.1413 54.9984L90.2053 55.9944V59.2704H89.1973ZM98.6375 59.2704V50.8704H103.749V51.6984H99.6455V54.6504H103.137V55.4664H99.6455V59.2704H98.6375ZM107.082 59.4144C106.522 59.4144 106.018 59.2864 105.57 59.0304C105.122 58.7744 104.766 58.4144 104.502 57.9504C104.246 57.4784 104.118 56.9264 104.118 56.2944C104.118 55.6624 104.25 55.1144 104.514 54.6504C104.778 54.1784 105.134 53.8144 105.582 53.5584C106.038 53.3024 106.546 53.1744 107.106 53.1744C107.666 53.1744 108.17 53.3024 108.618 53.5584C109.066 53.8144 109.418 54.1784 109.674 54.6504C109.938 55.1144 110.07 55.6624 110.07 56.2944C110.07 56.9264 109.938 57.4784 109.674 57.9504C109.41 58.4144 109.05 58.7744 108.594 59.0304C108.146 59.2864 107.642 59.4144 107.082 59.4144ZM107.082 58.5504C107.426 58.5504 107.746 58.4664 108.042 58.2984C108.338 58.1304 108.578 57.8784 108.762 57.5424C108.946 57.2064 109.038 56.7904 109.038 56.2944C109.038 55.7984 108.946 55.3824 108.762 55.0464C108.586 54.7104 108.35 54.4584 108.054 54.2904C107.758 54.1224 107.442 54.0384 107.106 54.0384C106.762 54.0384 106.442 54.1224 106.146 54.2904C105.85 54.4584 105.61 54.7104 105.426 55.0464C105.242 55.3824 105.15 55.7984 105.15 56.2944C105.15 56.7904 105.242 57.2064 105.426 57.5424C105.61 57.8784 105.846 58.1304 106.134 58.2984C106.43 58.4664 106.746 58.5504 107.082 58.5504ZM111.111 59.2704V50.6304H112.119V59.2704H111.111ZM113.412 59.2704V50.6304H114.42V59.2704H113.412ZM118.424 59.4144C117.864 59.4144 117.36 59.2864 116.912 59.0304C116.464 58.7744 116.108 58.4144 115.844 57.9504C115.588 57.4784 115.46 56.9264 115.46 56.2944C115.46 55.6624 115.592 55.1144 115.856 54.6504C116.12 54.1784 116.476 53.8144 116.924 53.5584C117.38 53.3024 117.888 53.1744 118.448 53.1744C119.008 53.1744 119.512 53.3024 119.96 53.5584C120.408 53.8144 120.76 54.1784 121.016 54.6504C121.28 55.1144 121.412 55.6624 121.412 56.2944C121.412 56.9264 121.28 57.4784 121.016 57.9504C120.752 58.4144 120.392 58.7744 119.936 59.0304C119.488 59.2864 118.984 59.4144 118.424 59.4144ZM118.424 58.5504C118.768 58.5504 119.088 58.4664 119.384 58.2984C119.68 58.1304 119.92 57.8784 120.104 57.5424C120.288 57.2064 120.38 56.7904 120.38 56.2944C120.38 55.7984 120.288 55.3824 120.104 55.0464C119.928 54.7104 119.692 54.4584 119.396 54.2904C119.1 54.1224 118.784 54.0384 118.448 54.0384C118.104 54.0384 117.784 54.1224 117.488 54.2904C117.192 54.4584 116.952 54.7104 116.768 55.0464C116.584 55.3824 116.492 55.7984 116.492 56.2944C116.492 56.7904 116.584 57.2064 116.768 57.5424C116.952 57.8784 117.188 58.1304 117.476 58.2984C117.772 58.4664 118.088 58.5504 118.424 58.5504ZM123.431 59.2704L121.691 53.3184H122.699L123.959 57.9864L125.351 53.3184H126.491L127.895 57.9864L129.143 53.3184H130.163L128.423 59.2704H127.391L125.927 54.3624L124.463 59.2704H123.431ZM133.371 59.4144C132.803 59.4144 132.299 59.2864 131.859 59.0304C131.419 58.7664 131.071 58.4024 130.815 57.9384C130.567 57.4744 130.443 56.9264 130.443 56.2944C130.443 55.6704 130.567 55.1264 130.815 54.6624C131.063 54.1904 131.407 53.8264 131.847 53.5704C132.295 53.3064 132.811 53.1744 133.395 53.1744C133.971 53.1744 134.467 53.3064 134.883 53.5704C135.307 53.8264 135.631 54.1664 135.855 54.5904C136.079 55.0144 136.191 55.4704 136.191 55.9584C136.191 56.0464 136.187 56.1344 136.179 56.2224C136.179 56.3104 136.179 56.4104 136.179 56.5224H131.439C131.463 56.9784 131.567 57.3584 131.751 57.6624C131.943 57.9584 132.179 58.1824 132.459 58.3344C132.747 58.4864 133.051 58.5624 133.371 58.5624C133.787 58.5624 134.135 58.4664 134.415 58.2744C134.695 58.0824 134.899 57.8224 135.027 57.4944H136.023C135.863 58.0464 135.555 58.5064 135.099 58.8744C134.651 59.2344 134.075 59.4144 133.371 59.4144ZM133.371 54.0264C132.891 54.0264 132.463 54.1744 132.087 54.4704C131.719 54.7584 131.507 55.1824 131.451 55.7424H135.195C135.171 55.2064 134.987 54.7864 134.643 54.4824C134.299 54.1784 133.875 54.0264 133.371 54.0264ZM137.167 59.2704V53.3184H138.079L138.163 54.4584C138.347 54.0664 138.627 53.7544 139.003 53.5224C139.379 53.2904 139.843 53.1744 140.395 53.1744V54.2304H140.119C139.767 54.2304 139.443 54.2944 139.147 54.4224C138.851 54.5424 138.615 54.7504 138.439 55.0464C138.263 55.3424 138.175 55.7504 138.175 56.2704V59.2704H137.167ZM143.446 59.4144C142.734 59.4144 142.142 59.2344 141.67 58.8744C141.198 58.5144 140.922 58.0264 140.842 57.4104H141.874C141.938 57.7224 142.102 57.9944 142.366 58.2264C142.638 58.4504 143.002 58.5624 143.458 58.5624C143.882 58.5624 144.194 58.4744 144.394 58.2984C144.594 58.1144 144.694 57.8984 144.694 57.6504C144.694 57.2904 144.562 57.0504 144.298 56.9304C144.042 56.8104 143.678 56.7024 143.206 56.6064C142.886 56.5424 142.566 56.4504 142.246 56.3304C141.926 56.2104 141.658 56.0424 141.442 55.8264C141.226 55.6024 141.118 55.3104 141.118 54.9504C141.118 54.4304 141.31 54.0064 141.694 53.6784C142.086 53.3424 142.614 53.1744 143.278 53.1744C143.91 53.1744 144.426 53.3344 144.826 53.6544C145.234 53.9664 145.47 54.4144 145.534 54.9984H144.538C144.498 54.6944 144.366 54.4584 144.142 54.2904C143.926 54.1144 143.634 54.0264 143.266 54.0264C142.906 54.0264 142.626 54.1024 142.426 54.2544C142.234 54.4064 142.138 54.6064 142.138 54.8544C142.138 55.0944 142.262 55.2824 142.51 55.4184C142.766 55.5544 143.11 55.6704 143.542 55.7664C143.91 55.8464 144.258 55.9464 144.586 56.0664C144.922 56.1784 145.194 56.3504 145.402 56.5824C145.618 56.8064 145.726 57.1344 145.726 57.5664C145.734 58.1024 145.53 58.5464 145.114 58.8984C144.706 59.2424 144.15 59.4144 143.446 59.4144Z" fill="#9E9E9E"/>
</g>
<defs>
<filter id="filter0_d_2012_1585" x="-18.2351" y="0.284117" width="203.448" height="115.448" filterUnits="userSpaceOnUse" color-interpolation-filters="sRGB">
<feFlood flood-opacity="0" result="BackgroundImageFix"/>
<feColorMatrix in="SourceAlpha" type="matrix" values="0 0 0 0 0 0 0 0 0 0 0 0 0 0 0 0 0 0 127 0" result="hardAlpha"/>
<feOffset dx="-9.78145" dy="11.7377"/>
<feGaussianBlur stdDeviation="12.2268"/>
<feComposite in2="hardAlpha" operator="out"/>
<feColorMatrix type="matrix" values="0 0 0 0 0.384371 0 0 0 0 0.102708 0 0 0 0 0.483333 0 0 0 0.05 0"/>
<feBlend mode="normal" in2="BackgroundImageFix" result="effect1_dropShadow_2012_1585"/>
<feBlend mode="normal" in="SourceGraphic" in2="effect1_dropShadow_2012_1585" result="shape"/>
</filter>
</defs>
</svg>
