<svg width="197" height="116" viewBox="0 0 197 116" fill="none" xmlns="http://www.w3.org/2000/svg">
<g filter="url(#filter0_d_2012_1593)">
<rect x="34.541" y="13" width="151.541" height="66.5408" rx="33.2704" fill="white" shape-rendering="crispEdges"/>
<circle cx="67.8114" cy="46.2704" r="21.2704" fill="#FFCC6A"/>
<path d="M76.5142 54.6788L70.3189 44.9491L76.3842 38.2774C76.597 38.0375 76.7067 37.7234 76.6895 37.4032C76.6723 37.0829 76.5295 36.7824 76.2922 36.5667C76.0548 36.351 75.742 36.2376 75.4216 36.251C75.1012 36.2643 74.799 36.4035 74.5805 36.6382L68.9671 42.8173L65.1392 36.8038C65.0292 36.6308 64.8773 36.4884 64.6977 36.3897C64.518 36.291 64.3164 36.2392 64.1114 36.2391H59.2364C59.0181 36.2392 58.8038 36.2979 58.6159 36.4092C58.4281 36.5204 58.2736 36.6801 58.1685 36.8715C58.0635 37.0629 58.0118 37.2789 58.0188 37.4972C58.0259 37.7154 58.0914 37.9277 58.2086 38.1119L64.4039 47.8416L58.3345 54.5132C58.2246 54.6313 58.1393 54.7699 58.0834 54.9212C58.0275 55.0725 58.0021 55.2334 58.0089 55.3945C58.0156 55.5557 58.0543 55.7139 58.1226 55.8599C58.1909 56.006 58.2875 56.1371 58.4069 56.2456C58.5262 56.354 58.6659 56.4377 58.8179 56.4918C58.9698 56.5459 59.131 56.5693 59.292 56.5606C59.4531 56.552 59.6108 56.5114 59.7561 56.4414C59.9013 56.3713 60.0312 56.2731 60.1383 56.1524L65.7557 49.9734L69.5836 55.9869C69.6936 56.1599 69.8454 56.3023 70.0251 56.401C70.2048 56.4997 70.4064 56.5515 70.6114 56.5516H75.4864C75.7047 56.5515 75.919 56.4927 76.1068 56.3815C76.2947 56.2702 76.4492 56.1106 76.5543 55.9192C76.6593 55.7278 76.711 55.5117 76.7039 55.2935C76.6969 55.0753 76.6314 54.863 76.5142 54.6788ZM71.2807 54.1141L61.4565 38.6766H63.4421L73.2662 54.1141H71.2807Z" fill="#7551DC"/>
<path d="M104.042 42.5344C102.901 42.5344 101.898 42.3104 101.034 41.8624C100.17 41.4144 99.498 40.7744 99.018 39.9424C98.538 39.1211 98.298 38.1504 98.298 37.0304C98.298 35.8891 98.49 34.8277 98.874 33.8464C99.2687 32.8651 99.818 32.0117 100.522 31.2864C101.237 30.5504 102.079 29.9797 103.05 29.5744C104.031 29.1584 105.114 28.9504 106.298 28.9504C107.493 28.9504 108.527 29.1797 109.402 29.6384C110.287 30.0971 110.97 30.7371 111.45 31.5584C111.941 32.3691 112.186 33.3131 112.186 34.3904C112.186 35.0197 112.111 35.6277 111.962 36.2144C111.813 36.8011 111.583 37.3344 111.274 37.8144C110.975 38.2837 110.613 38.6624 110.186 38.9504C109.759 39.2277 109.263 39.3664 108.698 39.3664C108.026 39.3664 107.535 39.1637 107.226 38.7584C106.927 38.3531 106.821 37.8251 106.906 37.1744L106.954 36.6464L107.242 37.2384C106.975 37.8997 106.554 38.4224 105.978 38.8064C105.413 39.1797 104.789 39.3664 104.106 39.3664C103.317 39.3664 102.693 39.1264 102.234 38.6464C101.786 38.1557 101.562 37.4891 101.562 36.6464C101.562 36.0597 101.653 35.4997 101.834 34.9664C102.026 34.4331 102.287 33.9584 102.618 33.5424C102.949 33.1157 103.343 32.7797 103.802 32.5344C104.271 32.2891 104.789 32.1664 105.354 32.1664C105.994 32.1664 106.501 32.3371 106.874 32.6784C107.247 33.0091 107.471 33.4944 107.546 34.1344L107.21 34.3424L107.578 32.3264H108.906L108.122 36.8064C108.047 37.2437 108.069 37.6011 108.186 37.8784C108.303 38.1451 108.549 38.2784 108.922 38.2784C109.253 38.2784 109.541 38.1611 109.786 37.9264C110.031 37.6917 110.239 37.3877 110.41 37.0144C110.581 36.6304 110.709 36.2144 110.794 35.7664C110.879 35.3184 110.922 34.8811 110.922 34.4544C110.922 33.5371 110.725 32.7531 110.33 32.1024C109.946 31.4517 109.397 30.9504 108.682 30.5984C107.967 30.2357 107.114 30.0544 106.122 30.0544C105.162 30.0544 104.282 30.2304 103.482 30.5824C102.682 30.9344 101.989 31.4251 101.402 32.0544C100.815 32.6731 100.362 33.3984 100.042 34.2304C99.722 35.0624 99.562 35.9531 99.562 36.9024C99.562 37.8624 99.7487 38.6784 100.122 39.3504C100.506 40.0224 101.05 40.5291 101.754 40.8704C102.469 41.2224 103.311 41.3984 104.282 41.3984C104.751 41.3984 105.215 41.3504 105.674 41.2544C106.143 41.1691 106.575 41.0357 106.97 40.8544L107.242 41.9264C106.751 42.1291 106.234 42.2784 105.69 42.3744C105.157 42.4811 104.607 42.5344 104.042 42.5344ZM104.602 38.1664C105.018 38.1664 105.402 38.0544 105.754 37.8304C106.106 37.5957 106.399 37.2757 106.634 36.8704C106.869 36.4544 107.007 35.9797 107.05 35.4464C107.093 35.0624 107.055 34.7157 106.938 34.4064C106.831 34.0864 106.65 33.8357 106.394 33.6544C106.149 33.4624 105.829 33.3664 105.434 33.3664C105.061 33.3664 104.719 33.4517 104.41 33.6224C104.111 33.7931 103.855 34.0224 103.642 34.3104C103.439 34.5984 103.279 34.9237 103.162 35.2864C103.055 35.6491 103.002 36.0171 103.002 36.3904C103.002 36.9237 103.135 37.3557 103.402 37.6864C103.669 38.0064 104.069 38.1664 104.602 38.1664ZM115.028 39.2704V35.1104L111.332 28.0704H113.14L116.052 33.9904H115.62L118.5 28.0704H120.292L116.628 35.1104V39.2704H115.028ZM122.993 39.4624C122.235 39.4624 121.553 39.2917 120.945 38.9504C120.347 38.5984 119.873 38.1077 119.521 37.4784C119.179 36.8384 119.009 36.0971 119.009 35.2544C119.009 34.4117 119.185 33.6757 119.537 33.0464C119.889 32.4064 120.369 31.9157 120.977 31.5744C121.585 31.2224 122.262 31.0464 123.009 31.0464C123.777 31.0464 124.459 31.2224 125.057 31.5744C125.665 31.9157 126.139 32.4011 126.481 33.0304C126.833 33.6597 127.009 34.4011 127.009 35.2544C127.009 36.0971 126.833 36.8384 126.481 37.4784C126.129 38.1077 125.649 38.5984 125.041 38.9504C124.443 39.2917 123.761 39.4624 122.993 39.4624ZM122.993 38.0864C123.43 38.0864 123.825 37.9851 124.177 37.7824C124.539 37.5691 124.827 37.2491 125.041 36.8224C125.265 36.3957 125.377 35.8731 125.377 35.2544C125.377 34.6251 125.27 34.1024 125.057 33.6864C124.843 33.2597 124.555 32.9451 124.193 32.7424C123.841 32.5291 123.451 32.4224 123.025 32.4224C122.609 32.4224 122.214 32.5291 121.841 32.7424C121.478 32.9451 121.185 33.2597 120.961 33.6864C120.747 34.1024 120.641 34.6251 120.641 35.2544C120.641 35.8731 120.747 36.3957 120.961 36.8224C121.185 37.2491 121.473 37.5691 121.825 37.7824C122.187 37.9851 122.577 38.0864 122.993 38.0864ZM130.859 39.4624C130.23 39.4624 129.686 39.3344 129.227 39.0784C128.768 38.8224 128.411 38.4384 128.155 37.9264C127.91 37.4037 127.787 36.7531 127.787 35.9744V31.2384H129.387V35.8144C129.387 36.5717 129.547 37.1424 129.867 37.5264C130.198 37.9104 130.672 38.1024 131.291 38.1024C131.718 38.1024 132.096 38.0011 132.427 37.7984C132.768 37.5957 133.035 37.3024 133.227 36.9184C133.419 36.5344 133.515 36.0651 133.515 35.5104V31.2384H135.115V39.2704H133.691L133.579 37.8944C133.334 38.3744 132.971 38.7584 132.491 39.0464C132.022 39.3237 131.478 39.4624 130.859 39.4624ZM136.33 39.2704V31.2384H137.77L137.914 32.7584C138.095 32.3957 138.325 32.0917 138.602 31.8464C138.89 31.5904 139.226 31.3931 139.61 31.2544C140.005 31.1157 140.447 31.0464 140.938 31.0464V32.7264H140.41C140.069 32.7264 139.749 32.7691 139.45 32.8544C139.151 32.9397 138.885 33.0784 138.65 33.2704C138.426 33.4624 138.25 33.7237 138.122 34.0544C137.994 34.3851 137.93 34.7957 137.93 35.2864V39.2704H136.33ZM146.472 39.4624C145.373 39.4624 144.424 39.2224 143.624 38.7424C142.824 38.2517 142.205 37.5744 141.768 36.7104C141.341 35.8357 141.128 34.8224 141.128 33.6704C141.128 32.5291 141.341 31.5211 141.768 30.6464C142.205 29.7717 142.824 29.0944 143.624 28.6144C144.424 28.1237 145.373 27.8784 146.472 27.8784C147.773 27.8784 148.834 28.1931 149.656 28.8224C150.477 29.4517 150.994 30.3371 151.208 31.4784H149.464C149.293 30.8171 148.957 30.2891 148.456 29.8944C147.965 29.4997 147.298 29.3024 146.456 29.3024C145.709 29.3024 145.053 29.4784 144.488 29.8304C143.933 30.1824 143.506 30.6837 143.208 31.3344C142.909 31.9851 142.76 32.7637 142.76 33.6704C142.76 34.5771 142.909 35.3611 143.208 36.0224C143.506 36.6731 143.933 37.1744 144.488 37.5264C145.053 37.8677 145.709 38.0384 146.456 38.0384C147.298 38.0384 147.965 37.8517 148.456 37.4784C148.957 37.0944 149.288 36.5771 149.448 35.9264H151.208C150.994 37.0357 150.477 37.9051 149.656 38.5344C148.834 39.1531 147.773 39.4624 146.472 39.4624ZM155.762 39.4624C155.005 39.4624 154.322 39.2917 153.714 38.9504C153.117 38.5984 152.642 38.1077 152.29 37.4784C151.949 36.8384 151.778 36.0971 151.778 35.2544C151.778 34.4117 151.954 33.6757 152.306 33.0464C152.658 32.4064 153.138 31.9157 153.746 31.5744C154.354 31.2224 155.031 31.0464 155.778 31.0464C156.546 31.0464 157.229 31.2224 157.826 31.5744C158.434 31.9157 158.909 32.4011 159.25 33.0304C159.602 33.6597 159.778 34.4011 159.778 35.2544C159.778 36.0971 159.602 36.8384 159.25 37.4784C158.898 38.1077 158.418 38.5984 157.81 38.9504C157.213 39.2917 156.53 39.4624 155.762 39.4624ZM155.762 38.0864C156.199 38.0864 156.594 37.9851 156.946 37.7824C157.309 37.5691 157.597 37.2491 157.81 36.8224C158.034 36.3957 158.146 35.8731 158.146 35.2544C158.146 34.6251 158.039 34.1024 157.826 33.6864C157.613 33.2597 157.325 32.9451 156.962 32.7424C156.61 32.5291 156.221 32.4224 155.794 32.4224C155.378 32.4224 154.983 32.5291 154.61 32.7424C154.247 32.9451 153.954 33.2597 153.73 33.6864C153.517 34.1024 153.41 34.6251 153.41 35.2544C153.41 35.8731 153.517 36.3957 153.73 36.8224C153.954 37.2491 154.242 37.5691 154.594 37.7824C154.957 37.9851 155.346 38.0864 155.762 38.0864Z" fill="#121212"/>
<path d="M100.742 61.4144C100.19 61.4144 99.694 61.3144 99.254 61.1144C98.814 60.9064 98.466 60.6224 98.21 60.2624C97.962 59.8944 97.838 59.4704 97.838 58.9904C97.838 58.4784 97.986 58.0184 98.282 57.6104C98.586 57.2024 98.986 56.9304 99.482 56.7944C99.026 56.6424 98.674 56.3984 98.426 56.0624C98.178 55.7264 98.054 55.3584 98.054 54.9584C98.054 54.5504 98.162 54.1784 98.378 53.8424C98.594 53.4984 98.902 53.2264 99.302 53.0264C99.702 52.8264 100.182 52.7264 100.742 52.7264C101.302 52.7264 101.782 52.8264 102.182 53.0264C102.582 53.2264 102.89 53.4984 103.106 53.8424C103.322 54.1784 103.43 54.5504 103.43 54.9584C103.43 55.3504 103.306 55.7184 103.058 56.0624C102.81 56.3984 102.458 56.6424 102.002 56.7944C102.498 56.9304 102.894 57.2024 103.19 57.6104C103.494 58.0184 103.646 58.4784 103.646 58.9904C103.646 59.4704 103.518 59.8944 103.262 60.2624C103.014 60.6224 102.67 60.9064 102.23 61.1144C101.79 61.3144 101.294 61.4144 100.742 61.4144ZM100.742 56.4344C101.254 56.4344 101.658 56.3064 101.954 56.0504C102.258 55.7864 102.41 55.4424 102.41 55.0184C102.41 54.5464 102.262 54.1904 101.966 53.9504C101.67 53.7104 101.262 53.5904 100.742 53.5904C100.222 53.5904 99.814 53.7104 99.518 53.9504C99.23 54.1904 99.086 54.5464 99.086 55.0184C99.086 55.4424 99.234 55.7864 99.53 56.0504C99.826 56.3064 100.23 56.4344 100.742 56.4344ZM100.742 60.5264C101.374 60.5264 101.846 60.3824 102.158 60.0944C102.478 59.7984 102.638 59.4104 102.638 58.9304C102.638 58.3864 102.466 57.9744 102.122 57.6944C101.778 57.4144 101.318 57.2744 100.742 57.2744C100.166 57.2744 99.706 57.4144 99.362 57.6944C99.018 57.9744 98.846 58.3864 98.846 58.9304C98.846 59.4104 99.002 59.7984 99.314 60.0944C99.634 60.3824 100.11 60.5264 100.742 60.5264ZM104.934 61.2704V52.8704H105.942V56.6744L109.446 52.8704H110.718L107.598 56.2184L110.766 61.2704H109.542L106.878 56.9984L105.942 57.9944V61.2704H104.934ZM114.374 61.2704V52.8704H119.486V53.6984H115.382V56.6504H118.874V57.4664H115.382V61.2704H114.374ZM122.819 61.4144C122.259 61.4144 121.755 61.2864 121.307 61.0304C120.859 60.7744 120.503 60.4144 120.239 59.9504C119.983 59.4784 119.855 58.9264 119.855 58.2944C119.855 57.6624 119.987 57.1144 120.251 56.6504C120.515 56.1784 120.871 55.8144 121.319 55.5584C121.775 55.3024 122.283 55.1744 122.843 55.1744C123.403 55.1744 123.907 55.3024 124.355 55.5584C124.803 55.8144 125.155 56.1784 125.411 56.6504C125.675 57.1144 125.807 57.6624 125.807 58.2944C125.807 58.9264 125.675 59.4784 125.411 59.9504C125.147 60.4144 124.787 60.7744 124.331 61.0304C123.883 61.2864 123.379 61.4144 122.819 61.4144ZM122.819 60.5504C123.163 60.5504 123.483 60.4664 123.779 60.2984C124.075 60.1304 124.315 59.8784 124.499 59.5424C124.683 59.2064 124.775 58.7904 124.775 58.2944C124.775 57.7984 124.683 57.3824 124.499 57.0464C124.323 56.7104 124.087 56.4584 123.791 56.2904C123.495 56.1224 123.179 56.0384 122.843 56.0384C122.499 56.0384 122.179 56.1224 121.883 56.2904C121.587 56.4584 121.347 56.7104 121.163 57.0464C120.979 57.3824 120.887 57.7984 120.887 58.2944C120.887 58.7904 120.979 59.2064 121.163 59.5424C121.347 59.8784 121.583 60.1304 121.871 60.2984C122.167 60.4664 122.483 60.5504 122.819 60.5504ZM126.848 61.2704V52.6304H127.856V61.2704H126.848ZM129.148 61.2704V52.6304H130.156V61.2704H129.148ZM134.161 61.4144C133.601 61.4144 133.097 61.2864 132.649 61.0304C132.201 60.7744 131.845 60.4144 131.581 59.9504C131.325 59.4784 131.197 58.9264 131.197 58.2944C131.197 57.6624 131.329 57.1144 131.593 56.6504C131.857 56.1784 132.213 55.8144 132.661 55.5584C133.117 55.3024 133.625 55.1744 134.185 55.1744C134.745 55.1744 135.249 55.3024 135.697 55.5584C136.145 55.8144 136.497 56.1784 136.753 56.6504C137.017 57.1144 137.149 57.6624 137.149 58.2944C137.149 58.9264 137.017 59.4784 136.753 59.9504C136.489 60.4144 136.129 60.7744 135.673 61.0304C135.225 61.2864 134.721 61.4144 134.161 61.4144ZM134.161 60.5504C134.505 60.5504 134.825 60.4664 135.121 60.2984C135.417 60.1304 135.657 59.8784 135.841 59.5424C136.025 59.2064 136.117 58.7904 136.117 58.2944C136.117 57.7984 136.025 57.3824 135.841 57.0464C135.665 56.7104 135.429 56.4584 135.133 56.2904C134.837 56.1224 134.521 56.0384 134.185 56.0384C133.841 56.0384 133.521 56.1224 133.225 56.2904C132.929 56.4584 132.689 56.7104 132.505 57.0464C132.321 57.3824 132.229 57.7984 132.229 58.2944C132.229 58.7904 132.321 59.2064 132.505 59.5424C132.689 59.8784 132.925 60.1304 133.213 60.2984C133.509 60.4664 133.825 60.5504 134.161 60.5504ZM139.168 61.2704L137.428 55.3184H138.436L139.696 59.9864L141.088 55.3184H142.228L143.632 59.9864L144.88 55.3184H145.9L144.16 61.2704H143.128L141.664 56.3624L140.2 61.2704H139.168ZM149.108 61.4144C148.54 61.4144 148.036 61.2864 147.596 61.0304C147.156 60.7664 146.808 60.4024 146.552 59.9384C146.304 59.4744 146.18 58.9264 146.18 58.2944C146.18 57.6704 146.304 57.1264 146.552 56.6624C146.8 56.1904 147.144 55.8264 147.584 55.5704C148.032 55.3064 148.548 55.1744 149.132 55.1744C149.708 55.1744 150.204 55.3064 150.62 55.5704C151.044 55.8264 151.368 56.1664 151.592 56.5904C151.816 57.0144 151.928 57.4704 151.928 57.9584C151.928 58.0464 151.924 58.1344 151.916 58.2224C151.916 58.3104 151.916 58.4104 151.916 58.5224H147.176C147.2 58.9784 147.304 59.3584 147.488 59.6624C147.68 59.9584 147.916 60.1824 148.196 60.3344C148.484 60.4864 148.788 60.5624 149.108 60.5624C149.524 60.5624 149.872 60.4664 150.152 60.2744C150.432 60.0824 150.636 59.8224 150.764 59.4944H151.76C151.6 60.0464 151.292 60.5064 150.836 60.8744C150.388 61.2344 149.812 61.4144 149.108 61.4144ZM149.108 56.0264C148.628 56.0264 148.2 56.1744 147.824 56.4704C147.456 56.7584 147.244 57.1824 147.188 57.7424H150.932C150.908 57.2064 150.724 56.7864 150.38 56.4824C150.036 56.1784 149.612 56.0264 149.108 56.0264ZM152.904 61.2704V55.3184H153.816L153.9 56.4584C154.084 56.0664 154.364 55.7544 154.74 55.5224C155.116 55.2904 155.58 55.1744 156.132 55.1744V56.2304H155.856C155.504 56.2304 155.18 56.2944 154.884 56.4224C154.588 56.5424 154.352 56.7504 154.176 57.0464C154 57.3424 153.912 57.7504 153.912 58.2704V61.2704H152.904ZM159.183 61.4144C158.471 61.4144 157.879 61.2344 157.407 60.8744C156.935 60.5144 156.659 60.0264 156.579 59.4104H157.611C157.675 59.7224 157.839 59.9944 158.103 60.2264C158.375 60.4504 158.739 60.5624 159.195 60.5624C159.619 60.5624 159.931 60.4744 160.131 60.2984C160.331 60.1144 160.431 59.8984 160.431 59.6504C160.431 59.2904 160.299 59.0504 160.035 58.9304C159.779 58.8104 159.415 58.7024 158.943 58.6064C158.623 58.5424 158.303 58.4504 157.983 58.3304C157.663 58.2104 157.395 58.0424 157.179 57.8264C156.963 57.6024 156.855 57.3104 156.855 56.9504C156.855 56.4304 157.047 56.0064 157.431 55.6784C157.823 55.3424 158.351 55.1744 159.015 55.1744C159.647 55.1744 160.163 55.3344 160.563 55.6544C160.971 55.9664 161.207 56.4144 161.271 56.9984H160.275C160.235 56.6944 160.103 56.4584 159.879 56.2904C159.663 56.1144 159.371 56.0264 159.003 56.0264C158.643 56.0264 158.363 56.1024 158.163 56.2544C157.971 56.4064 157.875 56.6064 157.875 56.8544C157.875 57.0944 157.999 57.2824 158.247 57.4184C158.503 57.5544 158.847 57.6704 159.279 57.7664C159.647 57.8464 159.995 57.9464 160.323 58.0664C160.659 58.1784 160.931 58.3504 161.139 58.5824C161.355 58.8064 161.463 59.1344 161.463 59.5664C161.471 60.1024 161.267 60.5464 160.851 60.8984C160.443 61.2424 159.887 61.4144 159.183 61.4144Z" fill="#9E9E9E"/>
</g>
<defs>
<filter id="filter0_d_2012_1593" x="0.305943" y="0.284117" width="200.448" height="115.448" filterUnits="userSpaceOnUse" color-interpolation-filters="sRGB">
<feFlood flood-opacity="0" result="BackgroundImageFix"/>
<feColorMatrix in="SourceAlpha" type="matrix" values="0 0 0 0 0 0 0 0 0 0 0 0 0 0 0 0 0 0 127 0" result="hardAlpha"/>
<feOffset dx="-9.78145" dy="11.7377"/>
<feGaussianBlur stdDeviation="12.2268"/>
<feComposite in2="hardAlpha" operator="out"/>
<feColorMatrix type="matrix" values="0 0 0 0 0.384371 0 0 0 0 0.102708 0 0 0 0 0.483333 0 0 0 0.05 0"/>
<feBlend mode="normal" in2="BackgroundImageFix" result="effect1_dropShadow_2012_1593"/>
<feBlend mode="normal" in="SourceGraphic" in2="effect1_dropShadow_2012_1593" result="shape"/>
</filter>
</defs>
</svg>
